<svg xmlns="http://www.w3.org/2000/svg" viewBox="0 0 1200 800" width="1200" height="800">
  <!-- Background sky -->
  <rect width="1200" height="800" fill="#EDE6D6"/>

  <!-- Sky gradient layers (top → horizon) -->
  <rect x="0" y="0" width="1200" height="120" fill="#D4C9B0" opacity="0.5"/>
  <rect x="0" y="0" width="1200" height="60" fill="#9E9182" opacity="0.15"/>

  <!-- Atmospheric horizon glow -->
  <rect x="0" y="440" width="1200" height="80" fill="#C4622D" opacity="0.06"/>
  <rect x="0" y="460" width="1200" height="60" fill="#C4622D" opacity="0.04"/>

  <!-- Water / ground reflection plane -->
  <rect x="0" y="560" width="1200" height="240" fill="#D4C9B0" opacity="0.55"/>
  <line x1="0" y1="560" x2="1200" y2="560" stroke="#9E9182" stroke-width="1"/>

  <!-- Water ripple lines -->
  <line x1="0" y1="580" x2="1200" y2="580" stroke="#9E9182" stroke-width="0.4" opacity="0.3"/>
  <line x1="0" y1="610" x2="1200" y2="610" stroke="#9E9182" stroke-width="0.4" opacity="0.25"/>
  <line x1="0" y1="645" x2="1200" y2="645" stroke="#9E9182" stroke-width="0.4" opacity="0.2"/>
  <line x1="0" y1="685" x2="1200" y2="685" stroke="#9E9182" stroke-width="0.3" opacity="0.15"/>
  <line x1="0" y1="730" x2="1200" y2="730" stroke="#9E9182" stroke-width="0.3" opacity="0.12"/>

  <!-- Skyline: far background mountain / terrain silhouette -->
  <polygon points="0,520 120,490 200,500 280,470 360,480 440,460 520,475 580,455 640,468 700,450 780,462 860,445 940,458 1020,440 1100,452 1200,435 1200,560 0,560" fill="#D4C9B0" opacity="0.6"/>

  <!-- ==== CITY SKYLINE ==== -->

  <!-- Far background buildings (hazy, receding) -->
  <rect x="50" y="480" width="60" height="80" fill="#9E9182" opacity="0.3"/>
  <rect x="80" y="460" width="40" height="100" fill="#9E9182" opacity="0.3"/>
  <rect x="130" y="490" width="55" height="70" fill="#9E9182" opacity="0.25"/>
  <rect x="1050" y="470" width="60" height="90" fill="#9E9182" opacity="0.3"/>
  <rect x="1090" y="455" width="45" height="105" fill="#9E9182" opacity="0.3"/>
  <rect x="1120" y="480" width="70" height="80" fill="#9E9182" opacity="0.25"/>

  <!-- MID buildings - left cluster -->
  <rect x="30" y="380" width="90" height="180" fill="#9E9182" opacity="0.55"/>
  <rect x="30" y="375" width="90" height="8" fill="#9E9182" opacity="0.7"/>
  <!-- Grid on this -->
  <line x1="60" y1="380" x2="60" y2="560" stroke="#EDE6D6" stroke-width="0.5" opacity="0.35"/>
  <line x1="90" y1="380" x2="90" y2="560" stroke="#EDE6D6" stroke-width="0.5" opacity="0.35"/>
  <line x1="30" y1="420" x2="120" y2="420" stroke="#EDE6D6" stroke-width="0.4" opacity="0.3"/>
  <line x1="30" y1="460" x2="120" y2="460" stroke="#EDE6D6" stroke-width="0.4" opacity="0.3"/>
  <line x1="30" y1="500" x2="120" y2="500" stroke="#EDE6D6" stroke-width="0.4" opacity="0.3"/>
  <line x1="30" y1="540" x2="120" y2="540" stroke="#EDE6D6" stroke-width="0.4" opacity="0.3"/>

  <rect x="130" y="340" width="80" height="220" fill="#9E9182" opacity="0.55"/>
  <rect x="130" y="336" width="80" height="8" fill="#9E9182"/>
  <line x1="160" y1="340" x2="160" y2="560" stroke="#EDE6D6" stroke-width="0.5" opacity="0.3"/>
  <line x1="190" y1="340" x2="190" y2="560" stroke="#EDE6D6" stroke-width="0.5" opacity="0.3"/>
  <line x1="130" y1="390" x2="210" y2="390" stroke="#EDE6D6" stroke-width="0.4" opacity="0.25"/>
  <line x1="130" y1="440" x2="210" y2="440" stroke="#EDE6D6" stroke-width="0.4" opacity="0.25"/>
  <line x1="130" y1="490" x2="210" y2="490" stroke="#EDE6D6" stroke-width="0.4" opacity="0.25"/>
  <line x1="130" y1="540" x2="210" y2="540" stroke="#EDE6D6" stroke-width="0.4" opacity="0.25"/>

  <!-- MID buildings - right cluster -->
  <rect x="1000" y="360" width="90" height="200" fill="#9E9182" opacity="0.55"/>
  <rect x="1000" y="356" width="90" height="8" fill="#9E9182" opacity="0.7"/>
  <line x1="1030" y1="360" x2="1030" y2="560" stroke="#EDE6D6" stroke-width="0.5" opacity="0.35"/>
  <line x1="1060" y1="360" x2="1060" y2="560" stroke="#EDE6D6" stroke-width="0.5" opacity="0.35"/>
  <line x1="1000" y1="410" x2="1090" y2="410" stroke="#EDE6D6" stroke-width="0.4" opacity="0.3"/>
  <line x1="1000" y1="460" x2="1090" y2="460" stroke="#EDE6D6" stroke-width="0.4" opacity="0.3"/>
  <line x1="1000" y1="510" x2="1090" y2="510" stroke="#EDE6D6" stroke-width="0.4" opacity="0.3"/>

  <rect x="1090" y="390" width="80" height="170" fill="#9E9182" opacity="0.5"/>
  <rect x="1090" y="386" width="80" height="8" fill="#9E9182"/>
  <line x1="1120" y1="390" x2="1120" y2="560" stroke="#EDE6D6" stroke-width="0.5" opacity="0.3"/>
  <line x1="1150" y1="390" x2="1150" y2="560" stroke="#EDE6D6" stroke-width="0.5" opacity="0.3"/>
  <line x1="1090" y1="430" x2="1170" y2="430" stroke="#EDE6D6" stroke-width="0.4" opacity="0.25"/>
  <line x1="1090" y1="480" x2="1170" y2="480" stroke="#EDE6D6" stroke-width="0.4" opacity="0.25"/>
  <line x1="1090" y1="530" x2="1170" y2="530" stroke="#EDE6D6" stroke-width="0.4" opacity="0.25"/>

  <!-- ===== HERO TOWERS: dominant foreground skyline ===== -->

  <!-- Tower 1 - far left hero -->
  <rect x="210" y="160" width="130" height="400" fill="#1C1916" opacity="0.82"/>
  <rect x="210" y="155" width="130" height="10" fill="#9E9182"/>
  <line x1="250" y1="160" x2="250" y2="560" stroke="#D4C9B0" stroke-width="0.7" opacity="0.4"/>
  <line x1="290" y1="160" x2="290" y2="560" stroke="#D4C9B0" stroke-width="0.7" opacity="0.4"/>
  <line x1="210" y1="210" x2="340" y2="210" stroke="#D4C9B0" stroke-width="0.5" opacity="0.3"/>
  <line x1="210" y1="270" x2="340" y2="270" stroke="#D4C9B0" stroke-width="0.5" opacity="0.3"/>
  <line x1="210" y1="330" x2="340" y2="330" stroke="#D4C9B0" stroke-width="0.5" opacity="0.3"/>
  <line x1="210" y1="390" x2="340" y2="390" stroke="#D4C9B0" stroke-width="0.5" opacity="0.3"/>
  <line x1="210" y1="450" x2="340" y2="450" stroke="#D4C9B0" stroke-width="0.5" opacity="0.3"/>
  <line x1="210" y1="510" x2="340" y2="510" stroke="#D4C9B0" stroke-width="0.5" opacity="0.3"/>
  <!-- Spire -->
  <rect x="269" y="90" width="12" height="70" fill="#1C1916"/>
  <rect x="275" y="70" width="4" height="90" fill="#C4622D" opacity="0.7"/>

  <!-- Tower 2 - center-left -->
  <rect x="360" y="100" width="160" height="460" fill="#1C1916"/>
  <rect x="360" y="95" width="160" height="12" fill="#C4622D"/>
  <line x1="400" y1="100" x2="400" y2="560" stroke="#D4C9B0" stroke-width="0.8" opacity="0.45"/>
  <line x1="450" y1="100" x2="450" y2="560" stroke="#D4C9B0" stroke-width="0.8" opacity="0.45"/>
  <line x1="500" y1="100" x2="500" y2="560" stroke="#D4C9B0" stroke-width="0.8" opacity="0.45"/>
  <line x1="360" y1="150" x2="520" y2="150" stroke="#D4C9B0" stroke-width="0.5" opacity="0.35"/>
  <line x1="360" y1="220" x2="520" y2="220" stroke="#D4C9B0" stroke-width="0.5" opacity="0.35"/>
  <line x1="360" y1="290" x2="520" y2="290" stroke="#D4C9B0" stroke-width="0.5" opacity="0.35"/>
  <line x1="360" y1="360" x2="520" y2="360" stroke="#D4C9B0" stroke-width="0.5" opacity="0.35"/>
  <line x1="360" y1="430" x2="520" y2="430" stroke="#D4C9B0" stroke-width="0.5" opacity="0.35"/>
  <line x1="360" y1="500" x2="520" y2="500" stroke="#D4C9B0" stroke-width="0.5" opacity="0.35"/>
  <!-- Terracotta vertical fin -->
  <rect x="352" y="100" width="8" height="460" fill="#C4622D" opacity="0.7"/>

  <!-- Tower 3 - DOMINANT CENTER (tallest) -->
  <rect x="490" y="30" width="220" height="530" fill="#1C1916"/>
  <rect x="490" y="24" width="220" height="12" fill="#9E9182"/>
  <!-- Dense curtain wall -->
  <line x1="530" y1="30" x2="530" y2="560" stroke="#D4C9B0" stroke-width="0.9" opacity="0.45"/>
  <line x1="575" y1="30" x2="575" y2="560" stroke="#D4C9B0" stroke-width="0.9" opacity="0.45"/>
  <line x1="600" y1="30" x2="600" y2="560" stroke="#D4C9B0" stroke-width="0.9" opacity="0.45"/>
  <line x1="625" y1="30" x2="625" y2="560" stroke="#D4C9B0" stroke-width="0.9" opacity="0.45"/>
  <line x1="670" y1="30" x2="670" y2="560" stroke="#D4C9B0" stroke-width="0.9" opacity="0.45"/>
  <line x1="490" y1="80" x2="710" y2="80" stroke="#D4C9B0" stroke-width="0.6" opacity="0.35"/>
  <line x1="490" y1="140" x2="710" y2="140" stroke="#D4C9B0" stroke-width="0.6" opacity="0.35"/>
  <line x1="490" y1="200" x2="710" y2="200" stroke="#D4C9B0" stroke-width="0.6" opacity="0.35"/>
  <line x1="490" y1="260" x2="710" y2="260" stroke="#D4C9B0" stroke-width="0.6" opacity="0.35"/>
  <line x1="490" y1="320" x2="710" y2="320" stroke="#D4C9B0" stroke-width="0.6" opacity="0.35"/>
  <line x1="490" y1="380" x2="710" y2="380" stroke="#D4C9B0" stroke-width="0.6" opacity="0.35"/>
  <line x1="490" y1="440" x2="710" y2="440" stroke="#D4C9B0" stroke-width="0.6" opacity="0.35"/>
  <line x1="490" y1="500" x2="710" y2="500" stroke="#D4C9B0" stroke-width="0.6" opacity="0.35"/>
  <!-- Crown: stepped setback -->
  <rect x="530" y="10" width="140" height="24" fill="#1C1916"/>
  <rect x="558" y="0" width="84" height="14" fill="#1C1916"/>
  <!-- Antennae -->
  <line x1="596" y1="0" x2="596" y2="-20" stroke="#1C1916" stroke-width="3"/>
  <!-- Terracotta accent on center tower -->
  <rect x="706" y="30" width="10" height="530" fill="#C4622D" opacity="0.75"/>

  <!-- Tower 4 - center-right -->
  <rect x="720" y="120" width="150" height="440" fill="#1C1916" opacity="0.9"/>
  <rect x="720" y="115" width="150" height="10" fill="#9E9182"/>
  <line x1="755" y1="120" x2="755" y2="560" stroke="#D4C9B0" stroke-width="0.7" opacity="0.4"/>
  <line x1="800" y1="120" x2="800" y2="560" stroke="#D4C9B0" stroke-width="0.7" opacity="0.4"/>
  <line x1="840" y1="120" x2="840" y2="560" stroke="#D4C9B0" stroke-width="0.7" opacity="0.4"/>
  <line x1="720" y1="170" x2="870" y2="170" stroke="#D4C9B0" stroke-width="0.5" opacity="0.3"/>
  <line x1="720" y1="240" x2="870" y2="240" stroke="#D4C9B0" stroke-width="0.5" opacity="0.3"/>
  <line x1="720" y1="310" x2="870" y2="310" stroke="#D4C9B0" stroke-width="0.5" opacity="0.3"/>
  <line x1="720" y1="380" x2="870" y2="380" stroke="#D4C9B0" stroke-width="0.5" opacity="0.3"/>
  <line x1="720" y1="450" x2="870" y2="450" stroke="#D4C9B0" stroke-width="0.5" opacity="0.3"/>
  <line x1="720" y1="520" x2="870" y2="520" stroke="#D4C9B0" stroke-width="0.5" opacity="0.3"/>
  <!-- Terracotta cap accent -->
  <rect x="720" y="115" width="150" height="6" fill="#C4622D" opacity="0.6"/>

  <!-- Tower 5 - far right hero -->
  <rect x="860" y="180" width="120" height="380" fill="#1C1916" opacity="0.82"/>
  <rect x="860" y="175" width="120" height="10" fill="#9E9182"/>
  <line x1="900" y1="180" x2="900" y2="560" stroke="#D4C9B0" stroke-width="0.7" opacity="0.4"/>
  <line x1="940" y1="180" x2="940" y2="560" stroke="#D4C9B0" stroke-width="0.7" opacity="0.4"/>
  <line x1="860" y1="230" x2="980" y2="230" stroke="#D4C9B0" stroke-width="0.5" opacity="0.3"/>
  <line x1="860" y1="290" x2="980" y2="290" stroke="#D4C9B0" stroke-width="0.5" opacity="0.3"/>
  <line x1="860" y1="350" x2="980" y2="350" stroke="#D4C9B0" stroke-width="0.5" opacity="0.3"/>
  <line x1="860" y1="410" x2="980" y2="410" stroke="#D4C9B0" stroke-width="0.5" opacity="0.3"/>
  <line x1="860" y1="470" x2="980" y2="470" stroke="#D4C9B0" stroke-width="0.5" opacity="0.3"/>
  <line x1="860" y1="530" x2="980" y2="530" stroke="#D4C9B0" stroke-width="0.5" opacity="0.3"/>

  <!-- Podium / base street level -->
  <rect x="0" y="540" width="1200" height="22" fill="#1C1916" opacity="0.9"/>
  <rect x="0" y="538" width="1200" height="4" fill="#C4622D" opacity="0.5"/>

  <!-- Street level setbacks / podium buildings -->
  <rect x="60" y="490" width="160" height="50" fill="#9E9182" opacity="0.5"/>
  <rect x="980" y="490" width="160" height="50" fill="#9E9182" opacity="0.5"/>

  <!-- Moon / sun: minimal circle in sky -->
  <circle cx="900" cy="120" r="36" fill="#D4C9B0" opacity="0.5"/>
  <circle cx="900" cy="120" r="30" fill="#EDE6D6" opacity="0.6"/>

  <!-- Sky horizontal lines (subtle) -->
  <line x1="0" y1="80" x2="1200" y2="80" stroke="#D4C9B0" stroke-width="0.4" opacity="0.35"/>
  <line x1="0" y1="160" x2="1200" y2="160" stroke="#D4C9B0" stroke-width="0.4" opacity="0.25"/>
  <line x1="0" y1="250" x2="1200" y2="250" stroke="#D4C9B0" stroke-width="0.3" opacity="0.2"/>
  <line x1="0" y1="350" x2="1200" y2="350" stroke="#D4C9B0" stroke-width="0.3" opacity="0.15"/>

  <!-- Reflection of center tower in water (faded) -->
  <rect x="490" y="562" width="220" height="160" fill="#1C1916" opacity="0.08"/>
  <line x1="530" y1="562" x2="530" y2="722" stroke="#D4C9B0" stroke-width="0.5" opacity="0.12"/>
  <line x1="600" y1="562" x2="600" y2="722" stroke="#D4C9B0" stroke-width="0.5" opacity="0.12"/>
  <line x1="670" y1="562" x2="670" y2="722" stroke="#D4C9B0" stroke-width="0.5" opacity="0.12"/>

  <!-- Terracotta sun/horizon glow at base of sky -->
  <rect x="0" y="500" width="1200" height="42" fill="#C4622D" opacity="0.04"/>
  <rect x="350" y="510" width="500" height="28" fill="#C4622D" opacity="0.05"/>
</svg>
