<svg xmlns="http://www.w3.org/2000/svg" viewBox="0 0 1200 800" width="1200" height="800">
  <!-- Background -->
  <rect width="1200" height="800" fill="#EDE6D6"/>

  <!-- Sky tone layers -->
  <rect x="0" y="0" width="1200" height="500" fill="#D4C9B0" opacity="0.2"/>

  <!-- Ground -->
  <rect x="0" y="700" width="1200" height="100" fill="#D4C9B0"/>
  <line x1="0" y1="700" x2="1200" y2="700" stroke="#1C1916" stroke-width="1.5"/>

  <!-- Left background tower - receding -->
  <rect x="100" y="250" width="120" height="450" fill="#9E9182" opacity="0.35"/>
  <!-- Curtain wall grid left BG tower -->
  <line x1="120" y1="250" x2="120" y2="700" stroke="#EDE6D6" stroke-width="0.5" opacity="0.6"/>
  <line x1="160" y1="250" x2="160" y2="700" stroke="#EDE6D6" stroke-width="0.5" opacity="0.6"/>
  <line x1="200" y1="250" x2="200" y2="700" stroke="#EDE6D6" stroke-width="0.5" opacity="0.6"/>
  <line x1="100" y1="300" x2="220" y2="300" stroke="#EDE6D6" stroke-width="0.5" opacity="0.6"/>
  <line x1="100" y1="350" x2="220" y2="350" stroke="#EDE6D6" stroke-width="0.5" opacity="0.6"/>
  <line x1="100" y1="400" x2="220" y2="400" stroke="#EDE6D6" stroke-width="0.5" opacity="0.6"/>
  <line x1="100" y1="450" x2="220" y2="450" stroke="#EDE6D6" stroke-width="0.5" opacity="0.6"/>
  <line x1="100" y1="500" x2="220" y2="500" stroke="#EDE6D6" stroke-width="0.5" opacity="0.6"/>
  <line x1="100" y1="550" x2="220" y2="550" stroke="#EDE6D6" stroke-width="0.5" opacity="0.6"/>
  <line x1="100" y1="600" x2="220" y2="600" stroke="#EDE6D6" stroke-width="0.5" opacity="0.6"/>
  <line x1="100" y1="650" x2="220" y2="650" stroke="#EDE6D6" stroke-width="0.5" opacity="0.6"/>

  <!-- Right background tower -->
  <rect x="980" y="300" width="140" height="400" fill="#9E9182" opacity="0.35"/>
  <line x1="1000" y1="300" x2="1000" y2="700" stroke="#EDE6D6" stroke-width="0.5" opacity="0.6"/>
  <line x1="1040" y1="300" x2="1040" y2="700" stroke="#EDE6D6" stroke-width="0.5" opacity="0.6"/>
  <line x1="1080" y1="300" x2="1080" y2="700" stroke="#EDE6D6" stroke-width="0.5" opacity="0.6"/>
  <line x1="980" y1="350" x2="1120" y2="350" stroke="#EDE6D6" stroke-width="0.5" opacity="0.6"/>
  <line x1="980" y1="400" x2="1120" y2="400" stroke="#EDE6D6" stroke-width="0.5" opacity="0.6"/>
  <line x1="980" y1="450" x2="1120" y2="450" stroke="#EDE6D6" stroke-width="0.5" opacity="0.6"/>
  <line x1="980" y1="500" x2="1120" y2="500" stroke="#EDE6D6" stroke-width="0.5" opacity="0.6"/>
  <line x1="980" y1="550" x2="1120" y2="550" stroke="#EDE6D6" stroke-width="0.5" opacity="0.6"/>
  <line x1="980" y1="600" x2="1120" y2="600" stroke="#EDE6D6" stroke-width="0.5" opacity="0.6"/>
  <line x1="980" y1="650" x2="1120" y2="650" stroke="#EDE6D6" stroke-width="0.5" opacity="0.6"/>

  <!-- Main tower - primary, dominant -->
  <rect x="400" y="80" width="280" height="620" fill="#1C1916"/>

  <!-- Curtain wall grid on main tower -->
  <line x1="440" y1="80" x2="440" y2="700" stroke="#D4C9B0" stroke-width="0.8" opacity="0.5"/>
  <line x1="480" y1="80" x2="480" y2="700" stroke="#D4C9B0" stroke-width="0.8" opacity="0.5"/>
  <line x1="520" y1="80" x2="520" y2="700" stroke="#D4C9B0" stroke-width="0.8" opacity="0.5"/>
  <line x1="560" y1="80" x2="560" y2="700" stroke="#D4C9B0" stroke-width="0.8" opacity="0.5"/>
  <line x1="600" y1="80" x2="600" y2="700" stroke="#D4C9B0" stroke-width="0.8" opacity="0.5"/>
  <line x1="640" y1="80" x2="640" y2="700" stroke="#D4C9B0" stroke-width="0.8" opacity="0.5"/>

  <!-- Horizontal floor bands on main tower -->
  <line x1="400" y1="130" x2="680" y2="130" stroke="#D4C9B0" stroke-width="0.6" opacity="0.4"/>
  <line x1="400" y1="180" x2="680" y2="180" stroke="#D4C9B0" stroke-width="0.6" opacity="0.4"/>
  <line x1="400" y1="230" x2="680" y2="230" stroke="#D4C9B0" stroke-width="0.6" opacity="0.4"/>
  <line x1="400" y1="280" x2="680" y2="280" stroke="#D4C9B0" stroke-width="0.6" opacity="0.4"/>
  <line x1="400" y1="330" x2="680" y2="330" stroke="#D4C9B0" stroke-width="0.6" opacity="0.4"/>
  <line x1="400" y1="380" x2="680" y2="380" stroke="#D4C9B0" stroke-width="0.6" opacity="0.4"/>
  <line x1="400" y1="430" x2="680" y2="430" stroke="#D4C9B0" stroke-width="0.6" opacity="0.4"/>
  <line x1="400" y1="480" x2="680" y2="480" stroke="#D4C9B0" stroke-width="0.6" opacity="0.4"/>
  <line x1="400" y1="530" x2="680" y2="530" stroke="#D4C9B0" stroke-width="0.6" opacity="0.4"/>
  <line x1="400" y1="580" x2="680" y2="580" stroke="#D4C9B0" stroke-width="0.6" opacity="0.4"/>
  <line x1="400" y1="630" x2="680" y2="630" stroke="#D4C9B0" stroke-width="0.6" opacity="0.4"/>
  <line x1="400" y1="680" x2="680" y2="680" stroke="#D4C9B0" stroke-width="0.6" opacity="0.4"/>

  <!-- Terracotta accent band at top of main tower -->
  <rect x="400" y="80" width="280" height="20" fill="#C4622D"/>

  <!-- Side tower left -->
  <rect x="250" y="180" width="160" height="520" fill="#1C1916" opacity="0.8"/>
  <!-- Grid side left -->
  <line x1="280" y1="180" x2="280" y2="700" stroke="#D4C9B0" stroke-width="0.6" opacity="0.35"/>
  <line x1="320" y1="180" x2="320" y2="700" stroke="#D4C9B0" stroke-width="0.6" opacity="0.35"/>
  <line x1="360" y1="180" x2="360" y2="700" stroke="#D4C9B0" stroke-width="0.6" opacity="0.35"/>
  <line x1="250" y1="240" x2="410" y2="240" stroke="#D4C9B0" stroke-width="0.5" opacity="0.3"/>
  <line x1="250" y1="300" x2="410" y2="300" stroke="#D4C9B0" stroke-width="0.5" opacity="0.3"/>
  <line x1="250" y1="360" x2="410" y2="360" stroke="#D4C9B0" stroke-width="0.5" opacity="0.3"/>
  <line x1="250" y1="420" x2="410" y2="420" stroke="#D4C9B0" stroke-width="0.5" opacity="0.3"/>
  <line x1="250" y1="480" x2="410" y2="480" stroke="#D4C9B0" stroke-width="0.5" opacity="0.3"/>
  <line x1="250" y1="540" x2="410" y2="540" stroke="#D4C9B0" stroke-width="0.5" opacity="0.3"/>
  <line x1="250" y1="600" x2="410" y2="600" stroke="#D4C9B0" stroke-width="0.5" opacity="0.3"/>
  <line x1="250" y1="660" x2="410" y2="660" stroke="#D4C9B0" stroke-width="0.5" opacity="0.3"/>

  <!-- Side tower right -->
  <rect x="790" y="220" width="160" height="480" fill="#1C1916" opacity="0.8"/>
  <line x1="820" y1="220" x2="820" y2="700" stroke="#D4C9B0" stroke-width="0.6" opacity="0.35"/>
  <line x1="860" y1="220" x2="860" y2="700" stroke="#D4C9B0" stroke-width="0.6" opacity="0.35"/>
  <line x1="900" y1="220" x2="900" y2="700" stroke="#D4C9B0" stroke-width="0.6" opacity="0.35"/>
  <line x1="790" y1="280" x2="950" y2="280" stroke="#D4C9B0" stroke-width="0.5" opacity="0.3"/>
  <line x1="790" y1="340" x2="950" y2="340" stroke="#D4C9B0" stroke-width="0.5" opacity="0.3"/>
  <line x1="790" y1="400" x2="950" y2="400" stroke="#D4C9B0" stroke-width="0.5" opacity="0.3"/>
  <line x1="790" y1="460" x2="950" y2="460" stroke="#D4C9B0" stroke-width="0.5" opacity="0.3"/>
  <line x1="790" y1="520" x2="950" y2="520" stroke="#D4C9B0" stroke-width="0.5" opacity="0.3"/>
  <line x1="790" y1="580" x2="950" y2="580" stroke="#D4C9B0" stroke-width="0.5" opacity="0.3"/>
  <line x1="790" y1="640" x2="950" y2="640" stroke="#D4C9B0" stroke-width="0.5" opacity="0.3"/>

  <!-- Podium / base structure -->
  <rect x="200" y="670" width="800" height="30" fill="#9E9182"/>
  <rect x="180" y="695" width="840" height="10" fill="#9E9182" opacity="0.6"/>

  <!-- Terracotta entry accent -->
  <rect x="495" y="610" width="90" height="90" fill="#C4622D" opacity="0.8"/>

  <!-- Spire detail on main tower -->
  <line x1="540" y1="80" x2="540" y2="20" stroke="#1C1916" stroke-width="6"/>
  <line x1="540" y1="20" x2="536" y2="80" stroke="#9E9182" stroke-width="1" opacity="0.5"/>
</svg>
